<?xml version="1.0" encoding="iso-8859-1"?>
<!-- Uploaded to: SVG Repo, www.svgrepo.com, Generator: SVG Repo Mixer Tools -->
<svg height="800px" width="800px" version="1.1" id="Layer_1" xmlns="http://www.w3.org/2000/svg" xmlns:xlink="http://www.w3.org/1999/xlink" 
	 viewBox="0 0 512.004 512.004" xml:space="preserve">
<g transform="translate(-1)">
	<path style="fill:#CFD2CF;" d="M363.364,90.387c-3.346,8.951-15.175,8.951-18.511,0l-15.201-40.713
		c-6.594-17.673,3.513-38.444,21.151-40.642c1.086-0.132,2.189-0.203,3.302-0.203c1.121,0,2.225,0.071,3.31,0.203
		c17.638,2.198,27.736,22.969,21.142,40.642L363.364,90.387z"/>
	<path style="fill:#559E62;" d="M412.957,179.114c-39.698,8.192-78.001,8.192-117.698,0c-18.529,7.398-35.328,18.194-49.664,31.594
		c43.979,28.239,73.198,77.418,73.198,133.57c0,45.798-19.482,86.952-50.485,115.95c24.761,15.934,54.166,25.291,85.795,25.291
		C441.867,485.52,513,414.378,513,326.623C513,259.675,471.546,202.516,412.957,179.114"/>
	<path style="fill:#4C8056;" d="M283.487,185.38L283.487,185.38c47.078,11.767,94.164,11.767,141.241,0v-35.31H283.487V185.38z"/>
	<polygon style="fill:#559E62;" points="301.142,150.07 407.073,150.07 407.073,123.587 301.142,123.587 	"/>
	<path style="fill:#4C8056;" d="M273.41,242.036c-2.454,0-4.899-1.015-6.638-3.01c-3.213-3.672-2.842-9.251,0.821-12.456
		c8.501-7.442,17.664-13.542,28.019-18.653c4.361-2.154,9.657-0.353,11.82,4.008c2.163,4.37,0.362,9.666-4.017,11.82
		c-8.951,4.423-16.87,9.693-24.188,16.102C277.55,241.312,275.475,242.036,273.41,242.036"/>
	<polygon style="fill:#E4E5E6;" points="336.453,123.587 371.763,123.587 371.763,88.277 336.453,88.277 	"/>
	<g>
		<polygon style="fill:#BE3A2B;" points="460.039,379.587 407.073,326.622 460.039,273.656 513.004,326.622 		"/>
		<path style="fill:#BE3A2B;" d="M354.108,273.656l-38.647,38.647c2.119,10.337,3.337,21.001,3.337,31.974l35.31,35.31
			l52.966-52.966L354.108,273.656z"/>
	</g>
	<path style="fill:#EEC319;" d="M218.75,196.77c-39.698,8.192-78.001,8.192-117.698,0C42.463,220.171,1,277.33,1,344.279
		c0,87.755,71.142,158.897,158.897,158.897c87.764,0,158.897-71.142,158.897-158.897C318.793,277.33,277.339,220.171,218.75,196.77"
		/>
	<path style="fill:#C19817;" d="M75.651,262.898c-2.357,0-4.696-0.936-6.435-2.79c-3.337-3.558-3.16-9.145,0.397-12.473
		c9.516-8.925,20.206-16.349,31.788-22.06c4.352-2.172,9.666-0.362,11.82,4.008c2.163,4.37,0.362,9.666-4.008,11.82
		c-10.019,4.943-19.279,11.379-27.524,19.103C79.986,262.103,77.814,262.898,75.651,262.898"/>
	<g>
		<polygon style="fill:#BE3A2B;" points="53.97,397.242 1.004,344.277 53.97,291.311 106.935,344.277 		"/>
		<polygon style="fill:#BE3A2B;" points="159.901,397.242 106.935,344.277 159.901,291.311 212.866,344.277 		"/>
		<polygon style="fill:#BE3A2B;" points="265.832,397.242 212.866,344.277 265.832,291.311 318.798,344.277 		"/>
	</g>
	<path style="fill:#CFD2CF;" d="M169.158,108.043c-3.346,8.951-15.175,8.951-18.511,0L135.445,67.33
		c-6.594-17.673,3.513-38.444,21.151-40.642c1.086-0.132,2.189-0.203,3.302-0.203c1.121,0,2.225,0.071,3.31,0.203
		c17.638,2.198,27.736,22.969,21.142,40.642L169.158,108.043z"/>
	<path style="fill:#C19817;" d="M89.28,203.035L89.28,203.035c47.078,11.767,94.164,11.767,141.241,0v-35.31H89.28V203.035z"/>
	<polygon style="fill:#EEC319;" points="106.935,167.725 212.866,167.725 212.866,141.242 106.935,141.242 	"/>
	<polygon style="fill:#E4E5E6;" points="142.246,141.242 177.556,141.242 177.556,105.932 142.246,105.932 	"/>
</g>
</svg>