<?xml version="1.0" encoding="iso-8859-1"?>
<!-- Uploaded to: SVG Repo, www.svgrepo.com, Generator: SVG Repo Mixer Tools -->
<svg height="800px" width="800px" version="1.1" id="Layer_1" xmlns="http://www.w3.org/2000/svg" xmlns:xlink="http://www.w3.org/1999/xlink" 
	 viewBox="0 0 512 512" xml:space="preserve">
<g>
	<path style="fill:#EEC319;" d="M470.397,476.07h-25.771v-16.788c0-10.572-8.569-19.142-19.142-19.142H86.514
		c-10.572,0-19.151,8.569-19.151,19.142v16.788H41.601c-10.572,0-19.151,8.569-19.151,19.142V512h467.088v-16.788
		C489.538,484.639,480.969,476.07,470.397,476.07"/>
	<path style="fill:#6CA1E9;" d="M91.675,440.14h328.65c53.365-45.945,87.184-112.856,87.184-188.632
		C507.509,113.134,394.905,0,256,0S4.491,113.134,4.491,251.509C4.491,327.285,38.31,394.195,91.675,440.14"/>
	<g>
		<path style="fill:#FFFFFF;" d="M139.547,89.825c-2.865,0-5.686-1.365-7.428-3.916c-2.794-4.096-1.743-9.683,2.353-12.477
			c10.572-7.231,21.836-13.537,33.478-18.755c4.509-2.012,9.836-0.009,11.866,4.527c2.021,4.536,0,9.845-4.527,11.875
			c-10.662,4.77-20.983,10.554-30.684,17.174C143.059,89.313,141.29,89.825,139.547,89.825"/>
		<path style="fill:#FFFFFF;" d="M65.814,179.649c-1.168,0-2.362-0.225-3.512-0.719c-4.563-1.94-6.692-7.222-4.743-11.785
			c11.309-26.597,27.621-50.311,48.469-70.503c3.566-3.44,9.261-3.359,12.701,0.207c3.449,3.566,3.359,9.252-0.198,12.701
			c-19.124,18.513-34.07,40.259-44.454,64.638C72.632,177.601,69.309,179.649,65.814,179.649"/>
	</g>
	<path style="fill:#BE3A2B;" d="M291.929,476.07c0,19.842-16.088,35.93-35.93,35.93s-35.93-16.088-35.93-35.93
		c0-19.842,16.088-35.93,35.93-35.93S291.929,456.228,291.929,476.07"/>
	<g>
		<path style="fill:#FFFFFF;" d="M167.885,161.684H155.48c-8.956,0-16.249-7.294-16.249-16.258V133.03
			c0-8.964,7.294-16.258,16.249-16.258h12.405c8.965,0,16.258,7.294,16.258,16.258v12.396
			C184.143,154.39,176.849,161.684,167.885,161.684"/>
		<path style="fill:#FFFFFF;" d="M293.639,71.86h-12.405c-8.956,0-16.249-7.294-16.249-16.258V43.206
			c0-8.964,7.294-16.258,16.249-16.258h12.405c8.965,0,16.258,7.294,16.258,16.258v12.396
			C309.897,64.566,302.604,71.86,293.639,71.86"/>
		<path style="fill:#FFFFFF;" d="M428.376,188.632h-12.405c-8.956,0-16.249-7.294-16.249-16.258v-12.396
			c0-8.964,7.294-16.258,16.249-16.258h12.405c8.964,0,16.258,7.294,16.258,16.258v12.396
			C444.634,181.338,437.341,188.632,428.376,188.632"/>
		<path style="fill:#FFFFFF;" d="M113.99,269.474h-12.405c-8.956,0-16.249-7.294-16.249-16.258V240.82
			c0-8.964,7.294-16.258,16.249-16.258h12.405c8.964,0,16.258,7.294,16.258,16.258v12.396
			C130.248,262.18,122.955,269.474,113.99,269.474"/>
	</g>
	<path style="fill:#E4E5E6;" d="M247.017,296.421c-80.177,0-153.483,29.247-209.992,77.564
		c14.318,24.989,32.813,47.356,54.649,66.156h328.65c18.746-16.141,35.014-34.915,48.317-55.709
		C410.758,329.899,332.817,296.421,247.017,296.421"/>
	<g>
		<path style="fill:#CFD2CF;" d="M506.046,276.816c-35.211,8.767-74.824,34.888-103.999,59.284
			c24.235,13.294,46.628,29.525,66.596,48.335c20.282-31.69,33.523-68.15,37.529-107.574
			C506.162,276.861,506.046,276.816,506.046,276.816"/>
		<path style="fill:#CFD2CF;" d="M106.222,328.686c-28.564-24.387-62.653-42.505-100.271-51.874
			c3.746,34.987,14.821,67.701,31.43,96.876C58.22,355.93,81.332,340.758,106.222,328.686"/>
	</g>
	<path style="fill:#F97B76;" d="M351.158,227.931l-68.213-30.316l-68.213,30.316c-5.937,2.641-12.629-1.707-12.629-8.21v-16.267
		c0-3.548,2.093-6.764,5.336-8.21l75.507-33.558l75.507,33.558c3.243,1.446,5.336,4.662,5.336,8.21v16.267
		C363.788,226.224,357.096,230.572,351.158,227.931"/>
	<g>
		<path style="fill:#BE3A2B;" d="M345.824,189.63v-36.927c0-4.958-4.024-8.982-8.982-8.982h-17.965
			c-4.958,0-8.982,4.024-8.982,8.982v20.956L345.824,189.63z"/>
		<path style="fill:#BE3A2B;" d="M247.017,296.421c34.484,0,67.656,5.488,98.807,15.495v-86.357l-62.877-27.944l-62.877,27.944
			v72.021C228.962,296.843,237.935,296.421,247.017,296.421"/>
	</g>
	<path style="fill:#F97B76;" d="M300.911,300.993v-49.484h-35.93v45.442C277.153,297.625,289.135,299.017,300.911,300.993"/>
</g>
</svg>