<?xml version="1.0" encoding="iso-8859-1"?>
<!-- Uploaded to: SVG Repo, www.svgrepo.com, Generator: SVG Repo Mixer Tools -->
<svg height="800px" width="800px" version="1.1" id="Layer_1" xmlns="http://www.w3.org/2000/svg" xmlns:xlink="http://www.w3.org/1999/xlink" 
	 viewBox="0 0 512.002 512.002" xml:space="preserve">
<g>
	<path style="fill:#71C084;" d="M494.345,485.518H17.655C7.901,485.518,0,477.617,0,467.863V44.139
		c0-9.754,7.901-17.655,17.655-17.655h476.69c9.754,0,17.655,7.901,17.655,17.655v423.724
		C512,477.617,504.099,485.518,494.345,485.518"/>
	<path style="fill:#F0C419;" d="M176.552,105.932c9.984,0,19.085,3.443,26.483,9.031V26.484h-52.966v88.479
		C157.466,109.375,166.568,105.932,176.552,105.932"/>
	<path style="fill:#BE3A2B;" d="M40.355,82.287c5.208-9.569,15.625-20.427,36.167-20.815c29.943-0.574,58.606,46.362,68.431,57.529
		c-7.733,7.954-12.544,18.776-12.544,30.746c0,8.024,2.304,15.439,6.047,21.928c0,44.553-60.248,73.931-85.495,48.693
		c-19.112-19.121-16.331-81.108-17.479-95.241C34.794,116.503,36.092,90.126,40.355,82.287"/>
	<g>
		<path style="fill:#922C25;" d="M132.405,158.57c-1.845,0-3.699-0.574-5.288-1.766l-35.31-26.483
			c-3.902-2.922-4.696-8.457-1.766-12.359c2.931-3.902,8.457-4.687,12.359-1.766l35.31,26.483c3.902,2.922,4.696,8.457,1.766,12.359
			C137.737,157.352,135.097,158.57,132.405,158.57"/>
		<path style="fill:#922C25;" d="M97.112,185.053c-2.692,0-5.332-1.218-7.071-3.531c-2.931-3.902-2.136-9.437,1.766-12.359
			l35.31-26.483c3.902-2.922,9.437-2.145,12.359,1.766c2.931,3.902,2.136,9.437-1.766,12.359l-35.31,26.483
			C100.811,184.479,98.957,185.053,97.112,185.053"/>
	</g>
	<path style="fill:#BE3A2B;" d="M312.748,82.287c-5.208-9.569-15.625-20.427-36.167-20.815
		c-29.943-0.574-58.606,46.362-68.431,57.529c7.733,7.954,12.544,18.776,12.544,30.746c0,8.024-2.304,15.439-6.047,21.928
		c0,44.553,60.248,73.931,85.495,48.693c19.112-19.121,16.331-81.108,17.479-95.241C318.31,116.503,317.012,90.126,312.748,82.287"
		/>
	<g>
		<path style="fill:#922C25;" d="M220.698,158.57c-2.692,0-5.332-1.218-7.071-3.531c-2.931-3.902-2.136-9.437,1.766-12.359
			l35.31-26.474c3.902-2.931,9.437-2.145,12.359,1.766c2.931,3.902,2.136,9.437-1.766,12.359l-35.31,26.474
			C224.397,157.996,222.543,158.57,220.698,158.57"/>
		<path style="fill:#922C25;" d="M255.991,185.062c-1.845,0-3.699-0.574-5.297-1.766l-35.31-26.492
			c-3.893-2.922-4.687-8.457-1.757-12.367c2.922-3.893,8.448-4.67,12.367-1.757l35.31,26.492c3.893,2.922,4.687,8.457,1.757,12.367
			C261.323,183.843,258.675,185.062,255.991,185.062"/>
	</g>
	<path id="SVGCleanerId_0" style="fill:#922C25;" d="M239.702,216.926c-14.221-10.381-24.929-26.297-25.035-44.968
		c-7.618,13.241-21.742,22.254-38.117,22.254l35.284,88.276l16.428-27.436l31.576,5.049L239.702,216.926z"/>
	<path id="SVGCleanerId_1" style="fill:#922C25;" d="M138.436,171.954c-0.124,21.698-14.539,39.715-32.177,49.585l-17.982,38.559
		l31.567-5.041l16.437,27.427l40.271-88.276C160.178,194.209,146.054,185.196,138.436,171.954"/>
	<g>
		<path id="SVGCleanerId_0_1_" style="fill:#922C25;" d="M239.702,216.926c-14.221-10.381-24.929-26.297-25.035-44.968
			c-7.618,13.241-21.742,22.254-38.117,22.254l35.284,88.276l16.428-27.436l31.576,5.049L239.702,216.926z"/>
	</g>
	<g>
		<path id="SVGCleanerId_1_1_" style="fill:#922C25;" d="M138.436,171.954c-0.124,21.698-14.539,39.715-32.177,49.585
			l-17.982,38.559l31.567-5.041l16.437,27.427l40.271-88.276C160.178,194.209,146.054,185.196,138.436,171.954"/>
	</g>
	<g>
		<path style="fill:#F0C419;" d="M317.68,123.587c-0.026,0.494-0.026,1.13-0.062,1.545c-0.627,7.742-0.097,29.864-2.613,51.421
			h196.996v-52.966H317.68z"/>
		<path style="fill:#F0C419;" d="M35.487,125.13c-0.035-0.415-0.044-1.05-0.062-1.545H0v52.966h38.1
			C35.584,154.994,36.114,132.881,35.487,125.13"/>
		<polygon style="fill:#F0C419;" points="176.552,194.208 150.069,252.258 150.069,485.518 203.034,485.518 203.034,260.468 		"/>
	</g>
	<path style="fill:#F97B76;" d="M220.69,150.07c0-24.373-19.765-44.138-44.138-44.138s-44.138,19.765-44.138,44.138
		s19.765,44.138,44.138,44.138S220.69,174.443,220.69,150.07"/>
</g>
</svg>