<?xml version="1.0" encoding="iso-8859-1"?>
<!-- Uploaded to: SVG Repo, www.svgrepo.com, Generator: SVG Repo Mixer Tools -->
<svg height="800px" width="800px" version="1.1" id="Layer_1" xmlns="http://www.w3.org/2000/svg" xmlns:xlink="http://www.w3.org/1999/xlink" 
	 viewBox="0 0 512 512" xml:space="preserve">
<g>
	<path style="fill:#BE3A2B;" d="M84.113,461.483c17.417-12.721,46.045-28.928,101.27-28.928c44.915,0,87.852,19.5,114.882,31.585
		c12.35,5.526,26.147,3.999,38.215-2.11c7.433-3.761,15.748-2.993,24.779-2.993h2.869c6.63,0,12.994-2.286,18.238-6.356
		c12.641-9.807,37.094-20.127,55.693-20.127c3.381,0,6.78,0.38,10.152,1.006V326.624c-0.194-0.168-10.602-9.163-26.483-22.872
		v40.527c0,14.618-11.855,26.483-26.483,26.483c-14.627,0-26.483-11.864-26.483-26.483v-86.272
		c-27.154-23.455-56.205-48.543-78.292-67.619c-0.362-0.309-0.786-0.521-1.156-0.83v13.48c0,14.618-11.855,26.483-26.483,26.483
		c-14.627,0-26.483-11.864-26.483-26.483v-23.234c-0.185,0.062-0.371,0.088-0.556,0.15c-0.759,0.265-1.501,0.574-2.26,0.865
		c-2.542,1.006-5.067,2.127-7.477,3.522c-0.212,0.124-0.406,0.265-0.618,0.388c-2.745,1.642-5.411,3.505-7.901,5.658
		c-7.715,6.665-16.296,14.071-25.326,21.875v70.223c0,14.618-11.855,26.483-26.483,26.483c-14.627,0-26.483-11.864-26.483-26.483
		v-24.479c-41.807,36.096-79.095,68.308-79.448,68.617c0,0-0.115,101.561-0.079,146.617
		C69.538,470.805,76.574,466.992,84.113,461.483"/>
	<path style="fill:#212F3E;" d="M194.208,273.655v8.828c0,11.511-7.389,21.213-17.655,24.858v89.9h158.897V273.655H194.208z"/>
	<path style="fill:#F0C419;" d="M256.001,273.655c0,43.917,35.531,79.448,79.448,79.448v-79.448H256.001z"/>
	<path style="fill:#3E5163;" d="M361.932,406.069H150.07c-4.873,0-8.828-3.955-8.828-8.828c0-4.873,3.955-8.828,8.828-8.828h211.862
		c4.873,0,8.828,3.955,8.828,8.828C370.759,402.114,366.805,406.069,361.932,406.069"/>
	<g>
		<path style="fill:#E4E5E6;" d="M485.518,512c9.754,0,17.655-7.901,17.655-17.655c0-34.684-32.362-61.793-63.117-61.793
			c-18.6,0-43.043,10.328-55.693,20.136c-5.235,4.061-11.608,6.347-18.238,6.347h-2.869c-9.031,0-17.337-0.759-24.779,3.001
			c-12.067,6.1-25.865,7.627-38.206,2.11c-27.03-12.094-69.976-31.594-114.891-31.594c-55.217,0-83.853,16.216-101.27,28.928
			c-14.91,10.893-27.833,15.21-48.799,15.21h-7.883c-8.792,0-16.949,6.012-18.361,14.689C7.275,502.44,15.758,512,26.484,512
			h283.807h44.138h69.297H485.518z"/>
		<path style="fill:#E4E5E6;" d="M500.158,270.047L286.433,56.835c-16.825-16.772-44.041-16.772-60.857,0L11.842,270.047
			c-13.903,13.903-16.146,36.484-3.619,51.641c14.371,17.382,40.166,18.3,55.729,2.737l77.294-66.622v24.682
			c0,14.627,11.855,26.483,26.483,26.483c14.618,0,26.483-11.855,26.483-26.483v-70.329l25.362-21.866
			c5.65-4.864,12.058-8.307,18.776-10.549v23.296c0,14.627,11.855,26.483,26.483,26.483c14.618,0,26.483-11.855,26.483-26.483
			v-13.542c0.353,0.291,0.759,0.494,1.112,0.794l78.336,67.513v86.475c0,14.627,11.855,26.483,26.483,26.483
			c14.618,0,26.483-11.855,26.483-26.483V303.46l24.32,20.966c15.572,15.563,41.366,14.645,55.729-2.737
			C516.303,306.532,514.061,283.951,500.158,270.047"/>
	</g>
	<path style="fill:#F0C419;" d="M194.208,282.483c0,11.511-7.389,21.213-17.655,24.858v45.762c43.917,0,79.448-35.531,79.448-79.448
		h-61.793V282.483z"/>
	<path style="fill:#E4E5E6;" d="M167.725,0H61.794c-4.873,0-8.828,3.955-8.828,8.828V35.31c0,4.873,3.955,8.828,8.828,8.828h8.828
		v8.828c0,14.627,11.855,26.483,26.483,26.483s26.483-11.855,26.483-26.483v-8.828h44.138c4.873,0,8.828-3.955,8.828-8.828V8.828
		C176.553,3.955,172.598,0,167.725,0"/>
	<path style="fill:#BE3A2B;" d="M158.897,123.351v-79.21h-35.31v8.828c0,14.627-11.855,26.483-26.483,26.483
		S70.622,67.595,70.622,52.968v158.446L158.897,123.351z"/>
</g>
</svg>