<?xml version="1.0" encoding="iso-8859-1"?>
<!-- Uploaded to: SVG Repo, www.svgrepo.com, Generator: SVG Repo Mixer Tools -->
<svg height="800px" width="800px" version="1.1" id="Layer_1" xmlns="http://www.w3.org/2000/svg" xmlns:xlink="http://www.w3.org/1999/xlink" 
	 viewBox="0 0 512 512" xml:space="preserve">
<g>
	<path style="fill:#A46F3E;" d="M211.862,158.897h61.793v-35.31H61.793l0.433,44.57c0.194,20.762-1.757,41.49-5.826,61.846
		l-0.362,1.801c-13.806,69.014-20.736,139.255-20.727,209.54v0.035v61.793c0,4.873,3.955,8.828,8.828,8.828h132.414
		c4.873,0,8.828-3.955,8.828-8.828V476.69l65.986,20.303C283.701,506.942,317.334,512,351.161,512H476.69v-40.907
		c0-55.411-41.693-100.334-97.103-100.334c-45.506,0-86.113-29.625-100.423-70.621h-67.302"/>
	<g>
		<path style="fill:#E4E5E6;" d="M282.483,123.586H52.966c-9.754,0-17.655-7.901-17.655-17.655V17.655
			C35.31,7.901,43.211,0,52.966,0h229.517c9.754,0,17.655,7.901,17.655,17.655v88.276
			C300.138,115.686,292.237,123.586,282.483,123.586"/>
		<path style="fill:#E4E5E6;" d="M476.69,476.69v-5.597c0-55.411-41.693-100.334-97.103-100.334V476.69H476.69z"/>
		<path style="fill:#E4E5E6;" d="M40.567,335.448c-3.213,32.274-4.882,64.68-5.146,97.103h149.963
			c0-53.628-43.476-97.103-97.103-97.103H40.567z"/>
		<polygon style="fill:#E4E5E6;" points="185.379,158.897 123.586,194.207 194.207,229.517 123.586,264.828 185.379,300.138 
			291.31,300.138 291.31,158.897 		"/>
	</g>
	<g>
		<polygon style="fill:#BDBFC1;" points="291.285,203.034 255.974,202.92 256.027,185.265 291.338,185.379 		"/>
		<polygon style="fill:#BDBFC1;" points="264.828,238.345 291.31,238.345 291.31,220.69 264.828,220.69 		"/>
		<polygon style="fill:#BDBFC1;" points="256,273.655 291.31,273.655 291.31,256 256,256 		"/>
	</g>
	<path style="fill:#84542C;" d="M379.586,476.69h-7.609c-41.649,0-82.944-7.671-121.821-22.616l-64.777-21.522H35.416
		c-0.018,2.931-0.106,5.862-0.106,8.792v0.035v61.793c0,4.873,3.955,8.828,8.828,8.828h132.414c4.873,0,8.828-3.955,8.828-8.828
		V476.69l65.986,20.303C283.701,506.942,317.334,512,351.161,512H476.69v-30.685L379.586,476.69z"/>
	<g>
		<path style="fill:#BDBFC1;" d="M88.276,44.138c4.882,0,8.828-3.946,8.828-8.828s-3.946-8.828-8.828-8.828H35.31v17.655H88.276z"/>
		<path style="fill:#BDBFC1;" d="M70.621,79.448c4.882,0,8.828-3.946,8.828-8.828c0-4.882-3.946-8.828-8.828-8.828H35.31v17.655
			H70.621z"/>
		<path style="fill:#BDBFC1;" d="M264.828,44.138c-4.882,0-8.828,3.946-8.828,8.828s3.946,8.828,8.828,8.828h35.31V44.138H264.828z"
			/>
		<path style="fill:#BDBFC1;" d="M247.172,79.448c-4.882,0-8.828,3.946-8.828,8.828s3.946,8.828,8.828,8.828h52.966V79.448H247.172z
			"/>
	</g>
</g>
</svg>