<?xml version="1.0" encoding="iso-8859-1"?>
<!-- Uploaded to: SVG Repo, www.svgrepo.com, Generator: SVG Repo Mixer Tools -->
<svg height="800px" width="800px" version="1.1" id="Layer_1" xmlns="http://www.w3.org/2000/svg" xmlns:xlink="http://www.w3.org/1999/xlink" 
	 viewBox="0 0 511.999 511.999" xml:space="preserve">
<g>
	<path style="fill:#F96C7E;" d="M374.796,89.682c7.433-16.225,26.218-25.141,43.493-19.076
		c19.818,6.956,29.193,28.928,20.877,47.086l-3.566,7.768c-7.857,17.161,0.035,37.658,17.638,45.771
		c17.602,8.113,38.241,0.777,46.098-16.384l3.557-7.768C527.804,92.71,499.83,26.936,440.597,5.944
		c-51.615-18.3-107.926,7.177-130.154,55.702L126.626,462.921c-7.857,17.161,0.035,37.659,17.638,45.771s38.241,0.777,46.098-16.384
		L374.796,89.682z"/>
	<g>
		<path style="fill:#F8B7C2;" d="M137.203,89.682l80.199,175.077l38.594-84.259l-54.44-118.855
			C179.328,13.12,123.017-12.356,71.402,5.944C12.169,26.936-15.806,92.71,9.106,147.079l3.558,7.768
			c7.857,17.161,28.495,24.497,46.098,16.384c17.602-8.113,25.494-28.61,17.638-45.771l-3.566-7.768
			c-8.316-18.158,1.059-40.13,20.877-47.086C110.985,64.541,129.77,73.457,137.203,89.682"/>
		<path style="fill:#F8B7C2;" d="M294.598,264.76l-38.594,84.259l65.633,143.289c7.857,17.161,28.504,24.497,46.098,16.384
			c17.602-8.113,25.494-28.61,17.638-45.771L294.598,264.76z"/>
	</g>
	<g>
		<path style="fill:#F96C7E;" d="M201.555,61.641c-4.626-10.108-10.805-19.138-18.044-27.057c-2.904,2.498-4.043,6.603-2.375,10.258
			c13.065,28.522-0.185,62.72-29.537,76.279l7.353,16.049c0.009-0.009,0.018,0,0.026-0.009
			c28.566-13.171,45.347-41.525,44.826-70.612L201.555,61.641z"/>
		<path style="fill:#F96C7E;" d="M222.96,108.37c-4.431,2.03-6.382,7.265-4.352,11.697c13.259,28.937-1.227,67.54-30.385,80.993
			l7.353,16.049c0,0,0.018,0,0.018-0.009c26.986-12.438,43.935-40.413,45.497-69.155L222.96,108.37z"/>
		<path style="fill:#F96C7E;" d="M133.075,3.767c-6.241-1.704-12.65-2.825-19.165-3.346c-0.168,1.545-0.088,3.116,0.6,4.634
			c10.664,23.27,6.718,48.905-8.598,55.958c-3.213,1.483-5.049,4.661-5.076,7.98c6.903-0.839,13.718,0.547,19.747,3.593
			C138.151,59.151,143.395,31.388,133.075,3.767"/>
		<path style="fill:#F96C7E;" d="M59.663,42.301c-11.617-4.299-24.311-4.864-36.732-1.739c-4.961,6.259-9.172,12.994-12.579,20.109
			c2.33,1.192,5.102,1.465,7.662,0.282c11.829-5.447,24.444-6.206,35.522-2.092c9.949,3.681,17.602,10.867,22.148,20.789
			c0.459,1.006,1.121,1.836,1.871,2.569c3.54-4.458,8.218-8.095,13.859-10.531C84.919,57.926,73.69,47.5,59.663,42.301"/>
		<path style="fill:#F96C7E;" d="M78.829,133.754c-0.477-2.807-1.192-5.597-2.436-8.289l-3.558-7.777
			c-1.457-3.178-2.189-6.488-2.595-9.807c-1.28-0.636-2.516-1.306-3.928-1.827c-16.728-6.188-41.754-3.39-65.907,7.133
			c0.459,5.879,1.483,11.741,3.01,17.549c0.583-0.132,1.165-0.15,1.73-0.406c20.533-9.472,42.143-12.509,55.04-7.715
			c4.149,1.536,6.903,3.734,8.183,6.524c1.492,3.231,4.687,5.146,8.033,5.146C77.213,134.283,78.025,133.983,78.829,133.754"/>
		<path style="fill:#F96C7E;" d="M314.796,308.852c-4.431,2.039-6.382,7.265-4.352,11.697c13.762,30.04-7.521,59.471-34.534,71.936
			l7.345,16.049c0.009-0.009,0.018-0.009,0.026-0.009c28.451-13.118,46.053-36.935,48.693-62.173L314.796,308.852z"/>
		<path style="fill:#F96C7E;" d="M316.761,481.669l4.873,10.637c0.847,1.845,1.907,3.522,3.028,5.138
			c27.41-12.871,44.526-38.506,46.618-65.28l-17.655-38.532l0,0c-4.431,2.03-6.374,7.265-4.343,11.697
			C361.853,432.773,346.961,467.73,316.761,481.669"/>
	</g>
	<g>
		<path style="fill:#F8B7C2;" d="M201.551,320.551c2.03-4.431,0.079-9.657-4.352-11.697l-17.178,37.5
			c2.639,25.229,20.25,49.055,48.702,62.173h0.018l7.353-16.049C209.081,380.022,187.797,350.591,201.551,320.551"/>
		<path style="fill:#F8B7C2;" d="M187.338,497.443c1.121-1.615,2.18-3.284,3.028-5.138l4.873-10.637
			c-30.199-13.939-45.091-48.887-32.521-76.341c2.03-4.431,0.088-9.666-4.343-11.697l0,0l-17.655,38.532
			C142.811,458.937,159.928,484.573,187.338,497.443"/>
		<path style="fill:#F8B7C2;" d="M244.116,227.628c2.03-4.431,0.079-9.657-4.352-11.697l-17.479,38.171
			c2.225,26.686,19.615,52.33,47.342,65.112h0.026l7.353-16.049C246.278,288.989,231.528,255.117,244.116,227.628"/>
		<path style="fill:#F8B7C2;" d="M284.551,139.352c2.03-4.431,0.079-9.666-4.343-11.697l-17.814,38.886
			c1.889,27.727,19.068,54.51,46.424,67.134h0.009l7.362-16.049C286.511,203.926,271.725,167.362,284.551,139.352"/>
		<path style="fill:#F8B7C2;" d="M330.857,44.844c1.677-3.663,0.53-7.759-2.375-10.258c-7.239,7.918-13.409,16.949-18.044,27.057
			l-2.242,4.908c-0.53,29.087,16.252,57.441,44.827,70.612h0.018l7.353-16.049C331.043,107.564,317.792,73.366,330.857,44.844"/>
		<path style="fill:#F8B7C2;" d="M411.16,68.993c-0.018-3.319-1.863-6.497-5.076-7.98c-15.316-7.053-19.262-32.689-8.598-55.958
			c0.689-1.518,0.777-3.09,0.6-4.634c-6.515,0.521-12.915,1.642-19.165,3.346c-10.311,27.622-5.076,55.384,12.491,68.82
			C397.442,69.54,404.257,68.154,411.16,68.993"/>
		<path style="fill:#F8B7C2;" d="M489.067,40.564c-12.42-3.116-25.114-2.569-36.732,1.739
			c-14.027,5.191-25.256,15.625-31.753,29.387c5.641,2.436,10.319,6.065,13.859,10.531c0.742-0.742,1.412-1.562,1.871-2.569
			c4.537-9.922,12.2-17.108,22.148-20.789c11.079-4.114,23.684-3.354,35.522,2.092c2.569,1.183,5.332,0.909,7.662-0.282
			C498.239,53.558,494.028,46.822,489.067,40.564"/>
		<path style="fill:#F8B7C2;" d="M445.68,106.051c-1.404,0.521-2.639,1.192-3.919,1.836c-0.406,3.31-1.139,6.621-2.595,9.807
			l-3.566,7.768c-1.236,2.701-1.951,5.491-2.428,8.289c0.803,0.238,1.615,0.53,2.419,0.53c3.354,0,6.559-1.916,8.042-5.155
			c1.271-2.781,4.025-4.979,8.174-6.515c12.915-4.785,34.516-1.757,55.049,7.715c0.565,0.256,1.148,0.274,1.73,0.406
			c1.527-5.809,2.551-11.67,3.01-17.549C487.435,102.661,462.4,99.863,445.68,106.051"/>
	</g>
</g>
</svg>