<?xml version="1.0" encoding="iso-8859-1"?>
<!-- Uploaded to: SVG Repo, www.svgrepo.com, Generator: SVG Repo Mixer Tools -->
<svg height="800px" width="800px" version="1.1" id="Layer_1" xmlns="http://www.w3.org/2000/svg" xmlns:xlink="http://www.w3.org/1999/xlink" 
	 viewBox="0 0 503.572 503.572" xml:space="preserve">
<g>
	<path style="fill:#BE3A2B;" d="M58.238,467.832c7.324,0.937,13.381,6.994,14.319,14.319c0.703,5.519,3.176,10.847,7.411,15.082
		c0.104,0.104,0.208,0.208,0.312,0.304c13.381,12.965,36.066,3.671,38.122-14.848l4.521-40.682l-61.362-61.362l-40.682,4.521
		c-18.519,2.057-27.804,24.741-14.848,38.131l0.304,0.304c4.235,4.235,9.572,6.708,15.082,7.411
		c7.324,0.937,13.381,7.003,14.319,14.319c0.712,5.519,3.185,10.856,7.42,15.091C47.391,464.656,52.719,467.129,58.238,467.832"/>
	<g>
		<path style="fill:#71C084;" d="M67.655,444.509c-2.222,0-4.443-0.85-6.135-2.543c-3.393-3.393-3.393-8.878,0-12.271l24.55-24.541
			c3.384-3.393,8.878-3.393,12.271,0c3.384,3.384,3.384,8.878,0,12.271l-24.55,24.541C72.098,443.659,69.876,444.509,67.655,444.509
			"/>
		<path style="fill:#71C084;" d="M92.201,419.966H55.381c-4.79,0-8.678-3.879-8.678-8.678c0-4.799,3.888-8.678,8.678-8.678h36.821
			c4.79,0,8.678,3.879,8.678,8.678C100.879,416.087,96.992,419.966,92.201,419.966"/>
		<path style="fill:#71C084;" d="M92.201,456.78c-4.79,0-8.678-3.879-8.678-8.678V411.29c0-4.799,3.888-8.678,8.678-8.678
			s8.678,3.879,8.678,8.678v36.812C100.879,452.901,96.992,456.78,92.201,456.78"/>
	</g>
	<path style="fill:#BE3A2B;" d="M445.334,35.74c-7.324-0.937-13.381-6.994-14.319-14.319c-0.703-5.519-3.176-10.847-7.411-15.082
		c-0.104-0.104-0.208-0.208-0.312-0.304c-13.381-12.965-36.066-3.671-38.122,14.848l-4.521,40.682l61.362,61.362l40.682-4.521
		c18.519-2.057,27.804-24.741,14.848-38.131l-0.304-0.304c-4.235-4.235-9.572-6.708-15.082-7.411
		c-7.324-0.937-13.381-7.003-14.319-14.319c-0.712-5.519-3.185-10.856-7.42-15.091S450.853,36.443,445.334,35.74"/>
	<g>
		<path style="fill:#71C084;" d="M411.287,100.881c-2.222,0-4.443-0.85-6.135-2.543c-3.393-3.393-3.393-8.878,0-12.271l24.541-24.55
			c3.384-3.393,8.886-3.393,12.271,0c3.393,3.384,3.393,8.878,0,12.271l-24.541,24.55
			C415.73,100.031,413.508,100.881,411.287,100.881"/>
		<path style="fill:#71C084;" d="M448.105,100.881h-36.821c-4.79,0-8.678-3.879-8.678-8.678s3.888-8.678,8.678-8.678h36.821
			c4.79,0,8.678,3.879,8.678,8.678S452.895,100.881,448.105,100.881"/>
		<path style="fill:#71C084;" d="M411.287,100.881c-4.79,0-8.678-3.879-8.678-8.678V55.383c0-4.799,3.888-8.678,8.678-8.678
			c4.79,0,8.678,3.879,8.678,8.678v36.821C419.965,97.002,416.077,100.881,411.287,100.881"/>
		<path style="fill:#71C084;" d="M131.84,450.924l-79.195-79.195c-5.719-5.719-7.324-14.371-4.035-21.764l16.02-36.048
			c49.378-111.087,138.197-199.914,249.283-249.283l36.057-16.028c7.394-3.28,16.046-1.675,21.764,4.044l79.195,79.186
			c5.719,5.727,7.324,14.379,4.035,21.764l-16.02,36.057C389.567,300.743,300.748,389.57,189.661,438.939l-36.057,16.028
			C146.21,458.248,137.558,456.642,131.84,450.924"/>
	</g>
	<path style="fill:#BE3A2B;" d="M411.574,240.413c-11.038-40.439-56.433-63.158-98.469-50.028
		c-40.769,14.345-84.515-6.63-98.478-50.028c-1.519-4.738-2.421-9.511-3.011-14.275c-39.901,31.093-74.873,68.148-103.502,109.993
		c0.581,2.872,1.284,5.736,2.204,8.591c13.963,43.407,57.7,64.382,98.469,50.028c42.036-13.121,87.431,9.589,98.478,50.028
		c1.623,5.953,2.525,11.932,2.881,17.868c40.075-34.434,74.448-75.212,101.697-120.901
		C411.739,241.263,411.687,240.838,411.574,240.413"/>
</g>
</svg>