<?xml version="1.0" encoding="iso-8859-1"?>
<!-- Uploaded to: SVG Repo, www.svgrepo.com, Generator: SVG Repo Mixer Tools -->
<svg height="800px" width="800px" version="1.1" id="Layer_1" xmlns="http://www.w3.org/2000/svg" xmlns:xlink="http://www.w3.org/1999/xlink" 
	 viewBox="0 0 512 512" xml:space="preserve">
<g>
	<polygon style="fill:#212F3E;" points="52.966,432.552 459.034,432.552 459.034,220.69 52.966,220.69 	"/>
	<path style="fill:#6B5B4B;" d="M317.793,432.552c19.518,0,35.31-15.793,35.31-35.31c0-24.399,19.738-44.138,44.138-44.138v79.448
		H317.793z"/>
	<path style="fill:#F0C419;" d="M291.31,326.621c-15.651-11.282-18.741-23.623-17.682-43.67c0.009-0.177-0.203-0.291-0.344-0.185
		c-26.474,19.977-34.233,30.72-29.166,63.267c0.821,5.279-4.837,9.137-9.428,6.409c-9.56-5.676-19.032-10.328-19.588-23.261
		c-0.018-0.397-0.512-0.583-0.75-0.265c-8.616,11.555-20.145,23.764-20.145,50.67c0,42.584,56.002,72.165,100.732,39.15
		c13.621-10.055,21.892-25.777,23.04-42.673C318.641,366.248,319.594,346.43,291.31,326.621"/>
	<path style="fill:#BCB3AA;" d="M503.172,512H8.828C3.955,512,0,508.045,0,503.172V476.69c0-4.873,3.955-8.828,8.828-8.828h494.345
		c4.873,0,8.828,3.955,8.828,8.828v26.483C512,508.045,508.045,512,503.172,512"/>
	<path style="fill:#F7EEE4;" d="M485.517,467.862H26.483v-26.483c0-4.873,3.955-8.828,8.828-8.828H476.69
		c4.873,0,8.828,3.955,8.828,8.828V467.862z"/>
	<path style="fill:#BCB3AA;" d="M8.828,141.241h494.345c4.873,0,8.828,3.955,8.828,8.828v26.483c0,4.873-3.955,8.828-8.828,8.828
		H8.828c-4.873,0-8.828-3.955-8.828-8.828v-26.483C0,145.196,3.955,141.241,8.828,141.241"/>
	<g>
		<path style="fill:#F7EEE4;" d="M26.483,185.379h459.034v26.483c0,4.873-3.955,8.828-8.828,8.828H35.31
			c-4.873,0-8.828-3.955-8.828-8.828V185.379z"/>
		<polygon style="fill:#F7EEE4;" points="379.586,141.241 132.414,141.241 167.724,79.448 344.276,79.448 		"/>
	</g>
	<g>
		<polygon style="fill:#BCB3AA;" points="326.621,79.448 185.379,79.448 220.69,0 291.31,0 		"/>
		<polygon style="fill:#BCB3AA;" points="397.241,432.552 459.034,432.552 459.034,220.69 397.241,220.69 		"/>
	</g>
	<g>
		<polygon style="fill:#F7EEE4;" points="397.241,282.483 459.034,282.483 459.034,264.828 397.241,264.828 		"/>
		<polygon style="fill:#F7EEE4;" points="397.241,335.448 459.034,335.448 459.034,317.793 397.241,317.793 		"/>
		<polygon style="fill:#F7EEE4;" points="397.241,388.414 459.034,388.414 459.034,370.759 397.241,370.759 		"/>
	</g>
	<polygon style="fill:#BCB3AA;" points="52.966,432.552 114.759,432.552 114.759,220.69 52.966,220.69 	"/>
	<g>
		<polygon style="fill:#F7EEE4;" points="52.966,282.483 114.759,282.483 114.759,264.828 52.966,264.828 		"/>
		<polygon style="fill:#F7EEE4;" points="52.966,335.448 114.759,335.448 114.759,317.793 52.966,317.793 		"/>
		<polygon style="fill:#F7EEE4;" points="52.966,388.414 114.759,388.414 114.759,370.759 52.966,370.759 		"/>
	</g>
	<path style="fill:#6B5B4B;" d="M194.207,432.552c-19.518,0-35.31-15.793-35.31-35.31c0-24.399-19.738-44.138-44.138-44.138v79.448
		H194.207z"/>
	<path style="fill:#E57E25;" d="M274.799,376.259c-8.289-5.976-9.931-12.518-9.366-23.137c0.009-0.088-0.106-0.15-0.185-0.097
		c-14.018,10.584-18.132,16.278-15.448,33.518c0.433,2.798-2.56,4.838-4.996,3.39c-5.058-3.001-10.081-5.473-10.372-12.314
		c-0.009-0.212-0.274-0.318-0.397-0.141c-4.564,6.118-10.673,12.588-10.673,26.836c0,22.563,29.661,38.232,53.363,20.745
		c7.212-5.332,11.591-13.656,12.2-22.607C289.276,397.251,289.78,386.755,274.799,376.259"/>
</g>
</svg>