<?xml version="1.0" encoding="iso-8859-1"?>
<!-- Uploaded to: SVG Repo, www.svgrepo.com, Generator: SVG Repo Mixer Tools -->
<svg height="800px" width="800px" version="1.1" id="Layer_1" xmlns="http://www.w3.org/2000/svg" xmlns:xlink="http://www.w3.org/1999/xlink" 
	 viewBox="0 0 512 512" xml:space="preserve">
<g>
	<polygon style="fill:#CFD2CF;" points="317.715,150.069 310.812,223.982 379.508,256 311.094,287.532 317.715,361.931 
		255.922,317.793 194.129,361.931 201.517,289.103 132.221,256 200.749,224.468 194.129,150.069 255.922,194.207 	"/>
	<g>
		<path style="fill:#E4E5E6;" d="M282.405,256c0-14.627-11.855-26.483-26.483-26.483c-14.627,0-26.483,11.855-26.483,26.483
			c0,14.627,11.855,26.483,26.483,26.483C270.549,282.483,282.405,270.627,282.405,256"/>
		<path style="fill:#E4E5E6;" d="M255.922,238.345c-4.882,0-8.828-3.946-8.828-8.828V52.966c0-4.882,3.946-8.828,8.828-8.828
			s8.828,3.946,8.828,8.828v176.552C264.749,234.399,260.804,238.345,255.922,238.345"/>
		<path style="fill:#E4E5E6;" d="M255.922,114.871c-2.26,0-4.511-0.865-6.232-2.578l-35.31-35.196
			c-3.452-3.443-3.46-9.031-0.018-12.482c3.443-3.46,9.022-3.452,12.482-0.018l29.078,28.981L285,64.598
			c3.46-3.452,9.039-3.443,12.482,0.018c3.443,3.452,3.434,9.039-0.018,12.482l-35.31,35.196
			C260.433,114.006,258.182,114.871,255.922,114.871"/>
		<path style="fill:#E4E5E6;" d="M255.922,158.897c-2.26,0-4.511-0.865-6.232-2.578l-52.966-52.851
			c-3.46-3.452-3.46-9.039-0.018-12.482c3.452-3.469,9.031-3.452,12.482-0.018l46.733,46.627l46.733-46.627
			c3.452-3.434,9.031-3.452,12.482,0.018c3.443,3.443,3.443,9.031-0.018,12.482l-52.966,52.851
			C260.433,158.031,258.182,158.897,255.922,158.897"/>
	</g>
	<path style="fill:#CFD2CF;" d="M282.405,26.483C282.405,11.855,270.549,0,255.922,0c-14.627,0-26.483,11.855-26.483,26.483
		s11.855,26.483,26.483,26.483C270.549,52.966,282.405,41.11,282.405,26.483"/>
	<g>
		<path style="fill:#E4E5E6;" d="M255.922,467.862c-4.882,0-8.828-3.946-8.828-8.828V282.483c0-4.882,3.946-8.828,8.828-8.828
			s8.828,3.946,8.828,8.828v176.552C264.749,463.916,260.804,467.862,255.922,467.862"/>
		<path style="fill:#E4E5E6;" d="M291.232,449.983c-2.26,0-4.511-0.865-6.232-2.578l-29.078-28.981l-29.078,28.981
			c-3.469,3.443-9.048,3.434-12.482-0.018c-3.443-3.46-3.434-9.039,0.018-12.482l35.31-35.196c3.452-3.434,9.013-3.434,12.465,0
			l35.31,35.196c3.452,3.443,3.46,9.022,0.018,12.482C295.761,449.118,293.501,449.983,291.232,449.983"/>
		<path style="fill:#E4E5E6;" d="M308.887,423.612c-2.26,0-4.511-0.865-6.232-2.578l-46.733-46.627l-46.733,46.627
			c-3.452,3.434-9.031,3.452-12.482-0.018c-3.443-3.452-3.443-9.031,0.018-12.482l52.966-52.851c3.452-3.434,9.013-3.434,12.465,0
			l52.966,52.851c3.46,3.452,3.46,9.031,0.018,12.482C313.416,422.747,311.147,423.612,308.887,423.612"/>
		<path style="fill:#E4E5E6;" d="M278.595,251.121c-2.993,0-5.906-1.518-7.556-4.255c-2.534-4.175-1.192-9.604,2.975-12.12
			l158.146-95.638c4.184-2.542,9.596-1.183,12.12,2.975c2.525,4.175,1.183,9.604-2.984,12.12l-158.137,95.638
			C281.72,250.706,280.148,251.121,278.595,251.121"/>
		<path style="fill:#E4E5E6;" d="M432.638,199.224c-0.706,0-1.421-0.088-2.127-0.256l-48.393-12.006
			c-4.723-1.165-7.609-5.941-6.453-10.664l11.847-48.428c1.165-4.749,5.985-7.636,10.673-6.479c4.74,1.156,7.636,5.932,6.479,10.673
			l-9.755,39.883l39.839,9.878c4.732,1.174,7.627,5.967,6.453,10.69C440.194,196.541,436.593,199.224,432.638,199.224"/>
		<path style="fill:#E4E5E6;" d="M419.207,227.974c-0.706,0-1.412-0.088-2.127-0.256l-72.633-17.964
			c-4.723-1.174-7.609-5.941-6.453-10.673l17.805-72.678c1.165-4.732,5.967-7.618,10.681-6.471
			c4.732,1.165,7.636,5.941,6.479,10.681l-15.722,64.106l64.079,15.854c4.732,1.174,7.627,5.959,6.453,10.69
			C426.772,225.282,423.17,227.974,419.207,227.974"/>
	</g>
	<path style="fill:#CFD2CF;" d="M485.595,132.525c0-14.627-11.855-26.483-26.483-26.483s-26.483,11.855-26.483,26.483
		s11.855,26.483,26.483,26.483S485.595,147.152,485.595,132.525"/>
	<g>
		<path style="fill:#E4E5E6;" d="M232.818,251.863c-1.465,0-2.948-0.362-4.308-1.13L71.326,162.474
			c-4.246-2.383-5.764-7.768-3.381-12.014c2.383-4.264,7.777-5.773,12.023-3.381l157.175,88.258
			c4.255,2.383,5.773,7.768,3.381,12.014C238.901,250.238,235.908,251.863,232.818,251.863"/>
		<path style="fill:#E4E5E6;" d="M77.181,204.966c-3.849,0-7.389-2.534-8.483-6.435c-1.324-4.687,1.395-9.56,6.091-10.884
			l39.503-11.167l-11.034-39.548c-1.306-4.687,1.43-9.56,6.126-10.867c4.679-1.306,9.56,1.421,10.876,6.126l13.4,48.022
			c1.315,4.687-1.421,9.543-6.1,10.867l-47.978,13.55C78.788,204.86,77.984,204.966,77.181,204.966"/>
		<path style="fill:#E4E5E6;" d="M91.526,233.276c-3.858,0-7.389-2.542-8.492-6.435c-1.315-4.687,1.412-9.56,6.1-10.893
			l63.55-17.911l-17.788-63.576c-1.306-4.705,1.43-9.569,6.118-10.884c4.661-1.298,9.578,1.421,10.884,6.126l20.153,72.06
			c1.315,4.687-1.421,9.551-6.1,10.876l-72.024,20.312C93.132,233.17,92.32,233.276,91.526,233.276"/>
	</g>
	<path style="fill:#CFD2CF;" d="M53.86,114.776c-14.618-0.538-26.898,10.876-27.436,25.494
		c-0.538,14.61,10.876,26.898,25.494,27.436c14.61,0.538,26.898-10.876,27.436-25.494C79.893,127.594,68.479,115.315,53.86,114.776"
		/>
	<g>
		<path style="fill:#E4E5E6;" d="M75.284,374.284c-2.993,0-5.906-1.518-7.556-4.255c-2.534-4.175-1.192-9.604,2.975-12.12
			l158.146-95.638c4.175-2.542,9.587-1.183,12.12,2.975c2.525,4.175,1.183,9.604-2.984,12.12L79.848,373.004
			C78.409,373.869,76.838,374.284,75.284,374.284"/>
		<path style="fill:#E4E5E6;" d="M115.922,390.974c-0.697,0-1.404-0.079-2.101-0.247c-4.74-1.165-7.645-5.941-6.488-10.673
			l9.772-39.892l-39.857-9.878c-4.732-1.174-7.618-5.967-6.444-10.69c1.165-4.74,5.994-7.601,10.69-6.444l48.393,11.997
			c4.723,1.174,7.609,5.941,6.453,10.664l-11.847,48.428C123.496,388.273,119.894,390.974,115.922,390.974"/>
		<path style="fill:#E4E5E6;" d="M147.629,392.431c-0.697,0-1.404-0.079-2.11-0.247c-4.732-1.165-7.636-5.95-6.479-10.681
			l15.731-64.115l-64.088-15.854c-4.732-1.174-7.618-5.959-6.453-10.69c1.165-4.732,5.941-7.601,10.69-6.444l72.642,17.964
			c4.723,1.174,7.609,5.941,6.453,10.673L156.2,385.705C155.203,389.73,151.592,392.431,147.629,392.431"/>
	</g>
	<path style="fill:#CFD2CF;" d="M26.405,379.586c0,14.627,11.855,26.483,26.483,26.483s26.483-11.855,26.483-26.483
		s-11.855-26.483-26.483-26.483S26.405,364.959,26.405,379.586"/>
	<g>
		<path style="fill:#E4E5E6;" d="M436.344,366.155c-1.465,0-2.948-0.362-4.308-1.13l-157.184-88.249
			c-4.246-2.392-5.764-7.768-3.381-12.014c2.392-4.264,7.777-5.773,12.023-3.381L440.67,349.63
			c4.255,2.383,5.773,7.768,3.381,12.014C442.427,364.531,439.434,366.155,436.344,366.155"/>
		<path style="fill:#E4E5E6;" d="M400.233,386.379c-3.858,0-7.406-2.551-8.492-6.453l-13.4-48.031
			c-1.315-4.679,1.421-9.543,6.1-10.858l47.978-13.559c4.634-1.333,9.56,1.386,10.884,6.1c1.324,4.687-1.395,9.569-6.1,10.884
			l-39.495,11.167l11.034,39.548c1.306,4.696-1.43,9.56-6.126,10.876C401.822,386.273,401.027,386.379,400.233,386.379"/>
		<path style="fill:#E4E5E6;" d="M368.595,388.862c-3.858,0-7.406-2.551-8.492-6.444l-20.153-72.068
			c-1.315-4.687,1.421-9.551,6.1-10.876l72.015-20.312c4.714-1.298,9.569,1.421,10.902,6.109c1.315,4.687-1.412,9.569-6.109,10.893
			l-63.541,17.911l17.788,63.576c1.307,4.705-1.43,9.569-6.118,10.884C370.192,388.756,369.389,388.862,368.595,388.862"/>
	</g>
	<g>
		<path style="fill:#CFD2CF;" d="M458.14,397.335c14.618,0.538,26.898-10.876,27.436-25.494
			c0.538-14.618-10.876-26.898-25.494-27.436c-14.61-0.538-26.898,10.876-27.436,25.494
			C432.107,384.517,443.521,396.796,458.14,397.335"/>
		<path style="fill:#CFD2CF;" d="M282.405,485.517c0-14.627-11.855-26.483-26.483-26.483c-14.627,0-26.483,11.855-26.483,26.483
			S241.295,512,255.922,512C270.549,512,282.405,500.145,282.405,485.517"/>
	</g>
</g>
</svg>