<?xml version="1.0" encoding="iso-8859-1"?>
<!-- Uploaded to: SVG Repo, www.svgrepo.com, Generator: SVG Repo Mixer Tools -->
<svg height="800px" width="800px" version="1.1" id="Layer_1" xmlns="http://www.w3.org/2000/svg" xmlns:xlink="http://www.w3.org/1999/xlink" 
	 viewBox="0 0 512 512" xml:space="preserve">
<g>
	<g>
		<path style="fill:#E6E7E8;" d="M256,158.897c-4.882,0-8.828-3.955-8.828-8.828v-26.483c0-4.873,3.946-8.828,8.828-8.828
			s8.828,3.955,8.828,8.828v26.483C264.828,154.942,260.882,158.897,256,158.897"/>
		<path style="fill:#E6E7E8;" d="M361.931,185.379c-4.882,0-8.828-3.955-8.828-8.828v-26.483c0-4.873,3.946-8.828,8.828-8.828
			c4.882,0,8.828,3.955,8.828,8.828v26.483C370.759,181.425,366.813,185.379,361.931,185.379"/>
		<path style="fill:#E6E7E8;" d="M467.862,220.69c-4.882,0-8.828-3.955-8.828-8.828v-26.483c0-4.873,3.946-8.828,8.828-8.828
			c4.882,0,8.828,3.955,8.828,8.828v26.483C476.69,216.735,472.744,220.69,467.862,220.69"/>
		<path style="fill:#E6E7E8;" d="M150.069,185.379c-4.882,0-8.828-3.955-8.828-8.828v-26.483c0-4.873,3.946-8.828,8.828-8.828
			s8.828,3.955,8.828,8.828v26.483C158.897,181.425,154.951,185.379,150.069,185.379"/>
		<path style="fill:#E6E7E8;" d="M44.138,220.69c-4.882,0-8.828-3.955-8.828-8.828v-26.483c0-4.873,3.946-8.828,8.828-8.828
			s8.828,3.955,8.828,8.828v26.483C52.966,216.735,49.02,220.69,44.138,220.69"/>
	</g>
	<path style="fill:#F0C419;" d="M256,0l-35.31,61.793c-14.045,25.291,2.022,58.642,30.799,61.564c1.483,0.15,2.984,0.23,4.511,0.23
		c1.527,0,3.028-0.079,4.511-0.23c28.778-2.922,44.844-36.273,30.799-61.564L256,0z"/>
	<path style="fill:#E57E25;" d="M256,70.621l-15.404,26.483c-6.126,10.84,0.883,25.132,13.436,26.386
		c0.644,0.062,1.306,0.097,1.969,0.097s1.324-0.035,1.969-0.097c12.553-1.254,19.562-15.545,13.436-26.386L256,70.621z"/>
	<polygon style="fill:#3B445B;" points="0,512 512,512 512,476.69 0,476.69 	"/>
	<path style="fill:#556080;" d="M512,476.69H0.053v-26.536c0-4.846,3.928-8.775,8.775-8.775h494.345
		c4.873,0,8.828,3.955,8.828,8.828V476.69z"/>
	<path style="fill:#F0C419;" d="M361.931,26.483l-35.31,61.793c-14.045,25.291,2.022,58.642,30.799,61.564
		c1.483,0.15,2.984,0.23,4.511,0.23c1.527,0,3.028-0.079,4.511-0.23c28.778-2.922,44.844-36.273,30.799-61.564L361.931,26.483z"/>
	<path style="fill:#E57E25;" d="M361.931,97.103l-15.404,26.483c-6.126,10.84,0.883,25.132,13.436,26.386
		c0.644,0.062,1.306,0.097,1.969,0.097s1.324-0.035,1.969-0.097c12.553-1.254,19.562-15.545,13.436-26.386L361.931,97.103z"/>
	<path style="fill:#F0C419;" d="M467.862,61.793l-35.31,61.793c-14.045,25.291,2.022,58.642,30.799,61.564
		c1.483,0.15,2.984,0.23,4.511,0.23c1.527,0,3.028-0.079,4.511-0.23c28.778-2.922,44.844-36.273,30.799-61.564L467.862,61.793z"/>
	<path style="fill:#E57E25;" d="M467.862,132.414l-15.404,26.483c-6.126,10.84,0.883,25.132,13.436,26.386
		c0.644,0.062,1.306,0.097,1.969,0.097s1.324-0.035,1.969-0.097c12.553-1.254,19.562-15.545,13.436-26.386L467.862,132.414z"/>
	<path style="fill:#F0C419;" d="M150.069,26.483l-35.31,61.793c-14.045,25.291,2.022,58.642,30.799,61.564
		c1.483,0.15,2.984,0.23,4.511,0.23s3.028-0.079,4.511-0.23c28.778-2.922,44.844-36.273,30.799-61.564L150.069,26.483z"/>
	<path style="fill:#E57E25;" d="M150.069,97.103l-15.404,26.483c-6.126,10.84,0.883,25.132,13.436,26.386
		c0.644,0.062,1.306,0.097,1.969,0.097c0.662,0,1.324-0.035,1.969-0.097c12.553-1.254,19.562-15.545,13.436-26.386L150.069,97.103z"
		/>
	<path style="fill:#F0C419;" d="M44.138,61.793l-35.31,61.793c-14.045,25.291,2.022,58.642,30.799,61.564
		c1.483,0.15,2.984,0.23,4.511,0.23s3.028-0.079,4.511-0.23c28.778-2.922,44.844-36.273,30.799-61.564L44.138,61.793z"/>
	<path style="fill:#E57E25;" d="M44.138,132.414l-15.404,26.483c-6.126,10.84,0.883,25.132,13.436,26.386
		c0.644,0.062,1.306,0.097,1.969,0.097s1.324-0.035,1.969-0.097c12.553-1.254,19.562-15.545,13.436-26.386L44.138,132.414z"/>
	<g>
		<path style="fill:#FAC176;" d="M26.483,211.862c-9.754,0-17.655,7.901-17.655,17.655v78.504c0,8.792,6.012,16.949,14.689,18.361
			c11.061,1.792,20.621-6.691,20.621-17.417v-26.483c0,10.726,9.56,19.209,20.621,17.417c8.678-1.412,14.689-9.569,14.689-18.361
			v-52.021c0-9.754-7.901-17.655-17.655-17.655H26.483z"/>
		<path style="fill:#FAC176;" d="M132.414,176.552c-9.754,0-17.655,7.901-17.655,17.655v60.849c0,8.792,6.012,16.949,14.689,18.361
			c11.061,1.792,20.621-6.691,20.621-17.417v34.366c0,8.792,6.012,16.949,14.689,18.361c11.061,1.792,20.621-6.691,20.621-17.417
			v-97.103c0-9.754-7.901-17.655-17.655-17.655H132.414z"/>
		<path style="fill:#FAC176;" d="M238.345,150.069c-9.754,0-17.655,7.901-17.655,17.655v78.504c0,8.792,6.012,16.949,14.689,18.361
			C246.44,266.381,256,257.898,256,247.172V220.69c0,10.726,9.56,19.209,20.621,17.417c8.678-1.412,14.689-9.569,14.689-18.361
			v-52.021c0-9.754-7.901-17.655-17.655-17.655H238.345z"/>
		<path style="fill:#FAC176;" d="M326.621,194.207v78.504c0,8.792,6.012,16.949,14.689,18.361
			c11.061,1.792,20.621-6.691,20.621-17.417v-44.138c0,10.726,9.56,19.209,20.621,17.417c8.678-1.412,14.689-9.569,14.689-18.361
			v-34.366c0-9.754-7.901-17.655-17.655-17.655h-35.31C334.521,176.552,326.621,184.452,326.621,194.207"/>
		<path style="fill:#FAC176;" d="M450.207,211.862c-9.754,0-17.655,7.901-17.655,17.655v43.193c0,8.792,6.012,16.949,14.689,18.361
			c11.061,1.792,20.621-6.691,20.621-17.417v43.193c0,8.792,6.012,16.949,14.689,18.361c11.061,1.792,20.621-6.691,20.621-17.417
			v-88.276c0-9.754-7.901-17.655-17.655-17.655H450.207z"/>
	</g>
	<g>
		<path style="fill:#FDD7AD;" d="M79.448,282.483c0,9.754-7.901,17.655-17.655,17.655s-17.655-7.901-17.655-17.655v26.483
			c0,9.754-7.901,17.655-17.655,17.655S8.828,318.72,8.828,308.966v132.414h70.621V282.483z"/>
		<path style="fill:#FDD7AD;" d="M185.379,441.379V291.31c0,9.754-7.901,17.655-17.655,17.655c-9.754,0-17.655-7.901-17.655-17.655
			V256c0,9.754-7.901,17.655-17.655,17.655c-9.754,0-17.655-7.901-17.655-17.655v185.379H185.379z"/>
		<path style="fill:#FDD7AD;" d="M291.31,441.379V220.69c0,9.754-7.901,17.655-17.655,17.655c-9.754,0-17.655-7.901-17.655-17.655
			v26.483c0,9.754-7.901,17.655-17.655,17.655c-9.754,0-17.655-7.901-17.655-17.655v194.207H291.31z"/>
		<path style="fill:#FDD7AD;" d="M397.241,441.379V229.517c0,9.754-7.901,17.655-17.655,17.655s-17.655-7.901-17.655-17.655v44.138
			c0,9.754-7.901,17.655-17.655,17.655c-9.754,0-17.655-7.901-17.655-17.655v167.724H397.241z"/>
		<path style="fill:#FDD7AD;" d="M503.172,441.379V317.793c0,9.754-7.901,17.655-17.655,17.655s-17.655-7.901-17.655-17.655v-44.138
			c0,9.754-7.901,17.655-17.655,17.655c-9.754,0-17.655-7.901-17.655-17.655v167.724H503.172z"/>
	</g>
</g>
</svg>