<?xml version="1.0" encoding="iso-8859-1"?>
<!-- Uploaded to: SVG Repo, www.svgrepo.com, Generator: SVG Repo Mixer Tools -->
<svg height="800px" width="800px" version="1.1" id="Layer_1" xmlns="http://www.w3.org/2000/svg" xmlns:xlink="http://www.w3.org/1999/xlink" 
	 viewBox="0 0 512 512" xml:space="preserve">
<g>
	<path style="fill:#F7EEE4;" d="M0,481.103V145.655h512v335.448c0,9.754-7.901,17.655-17.655,17.655H17.655
		C7.901,498.759,0,490.858,0,481.103"/>
	<polygon style="fill:#559E62;" points="317.793,304.552 194.207,304.552 256,189.793 	"/>
	<polygon style="fill:#84542C;" points="238.345,454.621 273.655,454.621 273.655,401.655 238.345,401.655 	"/>
	<polygon style="fill:#559E62;" points="282.483,304.552 229.517,304.552 176.552,401.655 335.448,401.655 	"/>
	<path style="fill:#BE3A2B;" d="M0,145.655V75.034c0-9.754,7.901-17.655,17.655-17.655h476.69c9.754,0,17.655,7.901,17.655,17.655
		v70.621H0z"/>
	<g>
		<path style="fill:#E4E5E6;" d="M450.207,101.517c-4.882,0-8.828-3.946-8.828-8.828c0-4.882,3.946-8.828,8.828-8.828
			c14.601,0,26.483-11.882,26.483-26.483s-11.882-26.483-26.483-26.483c-14.601,0-26.483,11.882-26.483,26.483
			c0,4.882-3.946,8.828-8.828,8.828c-4.882,0-8.828-3.946-8.828-8.828c0-24.338,19.8-44.138,44.138-44.138
			c24.338,0,44.138,19.8,44.138,44.138S474.545,101.517,450.207,101.517"/>
		<path style="fill:#E4E5E6;" d="M353.103,101.517c-4.882,0-8.828-3.946-8.828-8.828c0-4.882,3.946-8.828,8.828-8.828
			c14.601,0,26.483-11.882,26.483-26.483s-11.882-26.483-26.483-26.483c-14.601,0-26.483,11.882-26.483,26.483
			c0,4.882-3.946,8.828-8.828,8.828c-4.882,0-8.828-3.946-8.828-8.828c0-24.338,19.8-44.138,44.138-44.138
			c24.338,0,44.138,19.8,44.138,44.138S377.441,101.517,353.103,101.517"/>
		<path style="fill:#E4E5E6;" d="M256,101.517c-4.882,0-8.828-3.946-8.828-8.828c0-4.882,3.946-8.828,8.828-8.828
			c14.601,0,26.483-11.882,26.483-26.483S270.601,30.897,256,30.897s-26.483,11.882-26.483,26.483c0,4.882-3.946,8.828-8.828,8.828
			s-8.828-3.946-8.828-8.828c0-24.338,19.8-44.138,44.138-44.138s44.138,19.8,44.138,44.138S280.338,101.517,256,101.517"/>
		<path style="fill:#E4E5E6;" d="M158.897,101.517c-4.882,0-8.828-3.946-8.828-8.828c0-4.882,3.946-8.828,8.828-8.828
			c14.601,0,26.483-11.882,26.483-26.483s-11.882-26.483-26.483-26.483c-14.601,0-26.483,11.882-26.483,26.483
			c0,4.882-3.946,8.828-8.828,8.828s-8.828-3.946-8.828-8.828c0-24.338,19.8-44.138,44.138-44.138s44.138,19.8,44.138,44.138
			S183.234,101.517,158.897,101.517"/>
		<path style="fill:#E4E5E6;" d="M61.793,101.517c-4.882,0-8.828-3.946-8.828-8.828c0-4.882,3.946-8.828,8.828-8.828
			c14.601,0,26.483-11.882,26.483-26.483S76.394,30.897,61.793,30.897S35.31,42.778,35.31,57.379c0,4.882-3.946,8.828-8.828,8.828
			s-8.828-3.946-8.828-8.828c0-24.338,19.8-44.138,44.138-44.138s44.138,19.8,44.138,44.138S86.131,101.517,61.793,101.517"/>
	</g>
	<g>
		<path style="fill:#EEC319;" d="M134.095,313.379h-12.191c-3.946,0-7.142-3.196-7.142-7.15v-12.182c0-3.955,3.196-7.15,7.142-7.15
			h12.191c3.946,0,7.15,3.196,7.15,7.15v12.182C141.245,310.184,138.04,313.379,134.095,313.379"/>
		<path style="fill:#EEC319;" d="M72.301,225.103H60.111c-3.946,0-7.142-3.196-7.142-7.15v-12.182c0-3.955,3.196-7.15,7.142-7.15
			h12.191c3.946,0,7.15,3.196,7.15,7.15v12.182C79.452,221.908,76.247,225.103,72.301,225.103"/>
		<path style="fill:#EEC319;" d="M363.612,242.759h-12.191c-3.946,0-7.142-3.196-7.142-7.15v-12.182c0-3.955,3.196-7.15,7.142-7.15
			h12.191c3.946,0,7.15,3.196,7.15,7.15v12.182C370.762,239.563,367.558,242.759,363.612,242.759"/>
		<path style="fill:#EEC319;" d="M434.232,331.034h-12.191c-3.946,0-7.142-3.196-7.142-7.15v-12.182c0-3.955,3.196-7.15,7.142-7.15
			h12.191c3.946,0,7.15,3.196,7.15,7.15v12.182C441.383,327.839,438.178,331.034,434.232,331.034"/>
		<path style="fill:#EEC319;" d="M398.922,436.966h-12.191c-3.946,0-7.141-3.196-7.141-7.15v-12.182c0-3.955,3.196-7.15,7.141-7.15
			h12.191c3.946,0,7.15,3.196,7.15,7.15v12.182C406.073,433.77,402.868,436.966,398.922,436.966"/>
		<path style="fill:#EEC319;" d="M98.784,436.966H86.593c-3.946,0-7.142-3.196-7.142-7.15v-12.182c0-3.955,3.196-7.15,7.142-7.15
			h12.191c3.946,0,7.15,3.196,7.15,7.15v12.182C105.935,433.77,102.73,436.966,98.784,436.966"/>
	</g>
</g>
</svg>