<?xml version="1.0" encoding="iso-8859-1"?>
<!-- Uploaded to: SVG Repo, www.svgrepo.com, Generator: SVG Repo Mixer Tools -->
<svg height="800px" width="800px" version="1.1" id="Layer_1" xmlns="http://www.w3.org/2000/svg" xmlns:xlink="http://www.w3.org/1999/xlink" 
	 viewBox="0 0 511.865 511.865" xml:space="preserve">
<g>
	<path style="fill:#F97B76;" d="M302.69,74.369c0,25.721-20.936,46.573-46.76,46.573c-25.823,0-46.76-20.852-46.76-46.573
		s20.936-46.573,46.76-46.583C281.754,27.787,302.69,48.648,302.69,74.369"/>
	<g>
		<path style="fill:#BE3A2B;" d="M209.173,74.369c0-20.136,12.902-37.125,30.86-43.632C225.315,18.245,183.88,2.466,152.769,0.073
			c-8.062-0.614-16.012,2.644-20.983,9.002c-6.498,8.322-10.808,22.919,2.569,46.555c0,0,9.356,15.518,9.356,55.892
			c0,0-1.126,20.191,22.463,26.242c1.713,0.447,4.31,0.754,7.41,0.931c18.832,1.117,37.581-3.379,54.244-12.195l14.643-7.745
			C223.257,112.965,209.173,95.399,209.173,74.369"/>
		<path style="fill:#BE3A2B;" d="M302.69,74.369c0-20.136-12.902-37.125-30.86-43.632c14.718-12.493,56.152-28.272,87.263-30.664
			c8.062-0.614,16.012,2.644,20.983,9.002c6.498,8.322,10.799,22.919-2.569,46.555c0,0-9.356,15.518-9.356,55.892
			c0,0,1.126,20.191-22.463,26.242c-1.713,0.447-4.31,0.754-7.41,0.931c-18.832,1.117-37.581-3.379-54.244-12.195l-14.643-7.745
			C288.605,112.965,302.69,95.399,302.69,74.369"/>
	</g>
	<g>
		<path style="fill:#922C25;" d="M255.931,120.947c-4.71,0-9.169-0.903-13.461-2.197l-14.643,7.745
			c-14.308,7.578-30.171,11.711-46.285,12.093l-0.084,0.317l-27.927,56.571l46.545-18.637l9.309,46.583l46.545-93.231V120.947z"/>
		<path style="fill:#922C25;" d="M255.931,120.947c4.71,0,9.169-0.903,13.461-2.197l14.643,7.745
			c14.308,7.578,30.171,11.711,46.285,12.093l0.084,0.317l27.927,56.571l-46.545-18.637l-9.309,46.583l-46.545-93.156V120.947z"/>
	</g>
	<path style="fill:#559E62;" d="M477.631,299.014c27.117-9.709,27.117-48.668,0-58.377c23.673-16.393,13.591-54.021-15.109-56.385
		c18.627-21.96-0.847-55.696-29.184-50.558c12.307-26.038-15.239-53.574-41.276-41.277c2.672-14.718-5.176-26.978-16.384-32.824
		c-2.718,6.824-7.522,22.947-7.522,51.926c0,0,1.126,20.191-22.472,26.252c-1.713,0.438-4.31,0.745-7.41,0.931
		c-2.662,0.149-5.306-0.056-7.959-0.112l0.093,0.317l2.83,5.641c12.465,11.18,32.405,13.954,47.765,0.214
		c-24.567,27.443,3.584,69.567,38.335,57.381c-33.196,15.956-23.31,65.648,13.47,67.686c-36.78,2.039-46.666,51.721-13.47,67.686
		c-34.751-12.195-62.902,29.929-38.335,57.381c-27.452-24.567-69.576,3.584-57.381,38.335c-15.965-33.196-65.648-23.31-67.686,13.47
		c-2.039-36.78-51.731-46.666-67.686-13.47c12.186-34.751-29.938-62.902-57.381-38.335c24.557-27.452-3.584-69.576-38.344-57.381
		c33.196-15.965,23.31-65.648-13.461-67.686c36.771-2.039,46.657-51.731,13.461-67.686c34.76,12.186,62.902-29.938,38.344-57.381
		c15.351,13.74,35.291,10.966,47.756-0.214l2.83-5.641l0.093-0.317c-2.653,0.056-5.297,0.261-7.959,0.112
		c-3.1-0.186-5.697-0.493-7.41-0.931c-23.589-6.06-22.463-26.252-22.463-26.252c0-28.979-4.813-45.103-7.531-51.926
		c-11.208,5.846-19.056,18.115-16.384,32.824c-26.038-12.297-53.583,15.248-41.277,41.277
		c-28.337-5.139-47.811,28.598-29.184,50.558c-28.7,2.365-38.782,39.992-15.109,56.385c-27.108,9.709-27.117,48.668,0,58.377
		c-23.673,16.393-13.591,54.021,15.109,56.385c-18.627,21.969,0.847,55.706,29.184,50.558
		c-12.307,26.038,15.239,53.583,41.286,41.276c-5.148,28.337,28.588,47.812,50.548,29.184c2.365,28.7,39.992,38.782,56.385,15.109
		c9.709,27.117,48.668,27.117,58.377,0c16.393,23.682,54.021,13.591,56.385-15.109c21.969,18.628,55.706-0.847,50.558-29.184
		c26.037,12.307,53.583-15.239,41.276-41.276c28.337,5.148,47.811-28.588,29.184-50.558
		C491.222,353.035,501.304,315.408,477.631,299.014"/>
</g>
</svg>